<svg width="151" height="27" viewBox="0 0 151 27" fill="none" xmlns="http://www.w3.org/2000/svg">
<path d="M34.7198 14.5736C34.7462 14.367 34.7152 14.1571 34.6303 13.9668C34.5453 13.7766 34.4098 13.6134 34.2383 13.495C33.8702 13.3545 33.4759 13.2953 33.0827 13.3217H32.0555C31.6525 13.304 31.2492 13.3517 30.8614 13.4629C30.6681 13.5263 30.5023 13.6538 30.3914 13.8242C30.2805 13.9947 30.2311 14.1979 30.2515 14.4003C30.2349 14.4677 30.2349 14.5382 30.2515 14.6057H34.6813V14.5736H34.7198ZM34.6878 16.6922H37.3392C37.3732 17.1402 37.2682 17.5878 37.0384 17.9739C36.8086 18.3599 36.4652 18.6657 36.0552 18.8494C35.1729 19.1337 34.2459 19.2534 33.3203 19.2025C32.4536 19.2025 31.5868 19.1704 30.7522 19.1126C30.2729 19.1202 29.7971 19.0282 29.3551 18.8426C28.9131 18.6569 28.5144 18.3816 28.1842 18.034C27.7041 17.1812 27.4916 16.2037 27.5743 15.2285C27.4957 14.2996 27.7456 13.3726 28.2805 12.6091C28.7556 12.0569 29.5645 11.768 30.7843 11.7167L33.3203 11.646C34.9253 11.646 35.9718 11.8836 36.5303 12.3587C36.9971 12.7938 37.2797 13.391 37.32 14.0279L37.4099 15.9539H30.2579C30.2225 16.3772 30.3361 16.7996 30.5789 17.1481C30.7332 17.2829 30.914 17.3839 31.1097 17.4447C31.3054 17.5055 31.5117 17.5248 31.7153 17.5012H33.2304C33.7041 17.5652 34.1846 17.4508 34.5786 17.1802C34.6428 17.1481 34.6685 16.9747 34.6942 16.6858L34.6878 16.6922ZM47.406 11.8066V13.5849H43.0403V15.8962C43.0114 16.2387 43.0828 16.5822 43.2457 16.8848C43.3625 17.0014 43.5037 17.0907 43.6591 17.1462C43.8145 17.2017 43.9803 17.2221 44.1445 17.2059C44.4502 17.235 44.7571 17.1628 45.0177 17.0004C45.1197 16.8986 45.1983 16.7758 45.2482 16.6405C45.2981 16.5053 45.318 16.3608 45.3066 16.2172V15.8962H47.406C47.406 17.1802 47.2005 18.0533 46.8281 18.4642C46.4558 18.8751 45.5441 19.1961 44.2087 19.1961C43.2914 19.2515 42.3719 19.1317 41.4995 18.843C41.0942 18.6586 40.7578 18.3504 40.5386 17.9628C40.3195 17.5752 40.2288 17.1282 40.2797 16.6858V13.6555H38.9122V11.89H40.2797V10.0924H43.0403V11.89H47.406V11.8451V11.8066ZM59.0263 13.7968H56.2015C56.1825 13.6911 56.1296 13.5945 56.0509 13.5215C55.9721 13.4485 55.8717 13.4032 55.7649 13.3923C55.44 13.324 55.1082 13.2938 54.7762 13.3024H53.6206C53.2772 13.3012 52.934 13.3226 52.5934 13.3666C52.2082 13.4308 52.0413 13.6234 52.0413 13.9444C52.0413 14.2654 52.3302 14.4388 52.9401 14.4388H55.9126C56.7078 14.4249 57.5015 14.5112 58.2752 14.6956C58.6346 14.8464 58.936 15.1088 59.1348 15.4441C59.3337 15.7794 59.4194 16.1697 59.3794 16.5574C59.4068 17.0226 59.3368 17.4883 59.174 17.9249C59.0655 18.1321 58.9173 18.3159 58.7377 18.4657C58.5581 18.6155 58.3508 18.7285 58.1275 18.798C56.9228 19.1204 55.6748 19.2504 54.4295 19.1832H53.2932C52.3994 19.2353 51.5032 19.1376 50.6417 18.8943C50.2363 18.7209 49.8949 18.4256 49.6649 18.0494C49.4348 17.6733 49.3274 17.2349 49.3577 16.795H52.1568C52.1543 16.947 52.2059 17.095 52.3023 17.2125C52.3987 17.3301 52.5337 17.4096 52.6833 17.437C53.0468 17.5085 53.4172 17.5387 53.7875 17.5269H54.4295C54.7184 17.5269 54.9239 17.559 55.0715 17.559C55.5276 17.5793 55.9837 17.5206 56.4198 17.3856C56.5227 17.3367 56.6085 17.2578 56.6658 17.1593C56.723 17.0607 56.7492 16.9472 56.7408 16.8335C56.7408 16.4804 56.4198 16.2814 55.8099 16.2814H53.8004C53.0364 16.2814 52.266 16.2814 51.502 16.2236C50.1024 16.108 49.4026 15.389 49.4026 14.0086C49.3663 13.6546 49.4316 13.2975 49.5907 12.9792C49.7499 12.6609 49.9964 12.3944 50.3014 12.211C50.9387 11.9019 51.6349 11.7333 52.343 11.7167L54.9624 11.646C55.7716 11.6407 56.5802 11.6901 57.3828 11.7937C57.8745 11.8446 58.331 12.0729 58.6668 12.4357C58.9363 12.8407 59.0794 13.3167 59.0777 13.8032L59.0263 13.7968ZM63.0068 11.7937H68.0465V12.7246H63.0068V16.2172C62.9394 16.7846 63.0859 17.3569 63.4177 17.8222C63.9007 18.1345 64.4766 18.2706 65.0484 18.2074C65.5723 18.2361 66.0967 18.1575 66.5892 17.9763C66.8119 17.8505 66.992 17.6611 67.1064 17.4324C67.2208 17.2036 67.2642 16.9459 67.2312 16.6922V16.2814C67.2312 16.108 67.1991 15.9604 67.1991 15.8769H68.2263C68.2263 17.2251 68.0787 18.0918 67.7897 18.4449C67.4045 18.9393 66.5057 19.2025 65.2217 19.2025C64.4249 19.2718 63.6234 19.1393 62.8912 18.8173C62.2813 18.4706 61.9603 17.7708 61.9603 16.75V12.7696H60.1819V11.8066H61.9603V10.1758H63.0389V11.8194L63.0068 11.7937ZM78.537 19.0934H77.4584V17.6681C77.3414 17.971 77.1578 18.2437 76.9211 18.466C76.6843 18.6883 76.4006 18.8544 76.0909 18.9521C75.4641 19.1256 74.8151 19.2056 74.1649 19.1897C73.1575 19.2407 72.1495 19.1036 71.1924 18.7852C70.7429 18.5575 70.3732 18.1986 70.1324 17.756C69.8916 17.3134 69.7911 16.8081 69.8442 16.307V11.813H70.9228V15.7998C70.9228 16.8784 71.1796 17.5461 71.6803 17.8671C72.404 18.1795 73.1927 18.3117 73.9787 18.2523C74.8198 18.3082 75.6634 18.1902 76.4569 17.9056C77.1631 17.5525 77.5033 16.8592 77.5033 15.8063V11.813H78.537V19.0934ZM80.9895 11.813H82.068V13.097C82.1499 12.822 82.2991 12.5718 82.502 12.3689C82.7048 12.166 82.9551 12.0169 83.2301 11.935C83.7875 11.7678 84.3696 11.6983 84.9506 11.7295C86.3502 11.7295 87.249 11.8772 87.7113 12.1661C88.3533 12.5705 88.6743 13.418 88.6743 14.702V14.8754C88.6699 14.9341 88.6591 14.9922 88.6422 15.0487H87.615C87.6785 14.3969 87.525 13.7425 87.1784 13.1869C86.6676 12.7919 86.0217 12.6142 85.3808 12.6925H84.9571C84.214 12.6303 83.4681 12.7723 82.7999 13.1034C82.3056 13.4244 82.0423 14.0921 82.0423 15.0294V19.1062H80.9638L80.9317 11.7873L80.9895 11.813ZM11.0105 10.285H11.5883L12.2303 10.3171L12.8081 10.4006C12.973 10.4312 13.1316 10.4898 13.2767 10.5739C13.5681 10.7486 13.8109 10.9936 13.983 11.2865C14.1889 11.6073 14.2899 11.9843 14.2719 12.3651C14.2829 12.7717 14.171 13.1722 13.9508 13.5143C13.7241 13.8476 13.3985 14.1013 13.0199 14.2398V14.2719C13.4948 14.3557 13.9209 14.6146 14.2141 14.9973C14.5 15.3871 14.6449 15.8626 14.625 16.3456C14.6265 16.6557 14.5676 16.9632 14.4516 17.2508C14.3309 17.5392 14.164 17.8059 13.9573 18.0405C13.7064 18.2934 13.4055 18.4914 13.074 18.6219C12.7424 18.7523 12.3873 18.8123 12.0312 18.798H7.91596V10.2914H11.0233L11.0105 10.285ZM11.2993 13.9573C11.7912 13.9972 12.2826 13.8754 12.6989 13.6106C12.8478 13.4861 12.965 13.3281 13.0409 13.1495C13.1168 12.971 13.1492 12.7769 13.1355 12.5834C13.1387 12.3338 13.0883 12.0864 12.9878 11.8579C12.9003 11.6813 12.7585 11.5374 12.5834 11.447C12.4017 11.3576 12.2065 11.299 12.0056 11.2737C11.768 11.2737 11.5369 11.2416 11.2993 11.2416H9.00739V13.9509H11.2801L11.2993 13.9573ZM11.8772 17.8607C12.0875 17.8727 12.298 17.8426 12.4965 17.772C12.695 17.7015 12.8773 17.5919 13.0328 17.4498C13.1835 17.3033 13.3006 17.1258 13.376 16.9296C13.4514 16.7334 13.4832 16.5232 13.4693 16.3135C13.468 16.0726 13.4178 15.8345 13.3217 15.6137C13.2343 15.4284 13.0904 15.2756 12.9108 15.1771C12.73 15.0733 12.5355 14.9955 12.333 14.946C12.1016 14.8926 11.864 14.871 11.6268 14.8818H9.00739V17.8543H11.8772V17.8607ZM15.986 11.5369V10.285H17.0132V11.5369H15.986ZM17.0132 12.6412V18.8173H15.986V12.6476L17.0132 12.6412ZM19.4914 12.6412V13.9252H19.5235C19.7203 13.4842 20.0305 13.1032 20.4223 12.8209C20.8343 12.5739 21.3098 12.4534 21.7898 12.4742V13.5528C21.4332 13.5455 21.0785 13.6043 20.7433 13.7262C20.466 13.821 20.2212 13.9924 20.0371 14.2205C19.8555 14.451 19.7263 14.7183 19.6583 15.0038C19.5721 15.3457 19.5332 15.6978 19.5427 16.0502V18.7916H18.5155V12.6476H19.4721L19.4914 12.6412ZM96.5838 12.6412V13.54C96.797 13.2041 97.0951 12.9305 97.448 12.7467C97.8008 12.563 98.1959 12.4756 98.5933 12.4935C98.9542 12.499 99.3102 12.5777 99.6398 12.7246C99.7954 12.8114 99.9322 12.9281 100.042 13.0681C100.153 13.208 100.234 13.3684 100.282 13.54C100.478 13.2101 100.76 12.9394 101.097 12.7567C101.439 12.5831 101.818 12.493 102.201 12.4935C102.482 12.4913 102.762 12.5215 103.036 12.5834C103.272 12.6401 103.491 12.7499 103.678 12.9044C103.86 13.0484 104 13.2393 104.083 13.4565C104.179 13.7197 104.229 13.9979 104.23 14.2783V18.7724H103.203V14.7662C103.201 14.5889 103.18 14.4123 103.139 14.2398C103.114 14.0832 103.055 13.9341 102.965 13.8032C102.872 13.6658 102.737 13.5622 102.58 13.5079C102.278 13.394 101.952 13.3637 101.634 13.4202C101.317 13.4767 101.02 13.6179 100.776 13.8289C100.634 13.982 100.525 14.1621 100.454 14.3585C100.384 14.5548 100.354 14.7633 100.365 14.9717V18.8237H99.3381V14.7791C99.338 14.5932 99.3165 14.4079 99.2739 14.2269C99.2337 14.0799 99.1686 13.9409 99.0813 13.816C98.9929 13.6886 98.8706 13.5885 98.7282 13.5271C98.5509 13.4646 98.364 13.4341 98.176 13.4373C97.9123 13.4319 97.6516 13.4938 97.4185 13.617C97.2168 13.7276 97.0381 13.8758 96.892 14.0536C96.6721 14.3294 96.5401 14.6649 96.5132 15.0166V18.8687H95.486V12.6476H96.5389L96.5838 12.6412ZM111.279 18.798C111.057 18.9174 110.805 18.9688 110.554 18.9457C110.429 18.9553 110.304 18.9363 110.188 18.8903C110.072 18.8444 109.968 18.7725 109.884 18.6803C109.8 18.5881 109.738 18.478 109.703 18.3582C109.667 18.2384 109.66 18.1122 109.681 17.9891C109.417 18.2974 109.088 18.543 108.718 18.7082C108.338 18.8607 107.933 18.9413 107.524 18.9457C107.258 18.9447 106.993 18.9146 106.734 18.8558C106.506 18.794 106.289 18.6965 106.092 18.5669C105.919 18.4159 105.772 18.2382 105.655 18.0405C105.538 17.7964 105.478 17.5282 105.482 17.2572C105.474 16.9569 105.534 16.6586 105.655 16.3841C105.77 16.1684 105.93 15.9801 106.124 15.8319C106.32 15.692 106.537 15.5837 106.766 15.5109C107.014 15.4322 107.267 15.3721 107.524 15.3312C107.813 15.267 108.076 15.2477 108.307 15.2156C108.524 15.195 108.739 15.1563 108.949 15.1001C109.122 15.0642 109.284 14.9846 109.418 14.8689C109.479 14.8152 109.527 14.7476 109.557 14.6716C109.587 14.5957 109.599 14.5137 109.591 14.4324C109.606 14.2493 109.566 14.0659 109.475 13.9059C109.39 13.7791 109.281 13.67 109.154 13.5849C109.012 13.5261 108.866 13.4768 108.718 13.4373C108.554 13.4106 108.389 13.3999 108.223 13.4052C107.85 13.3965 107.48 13.478 107.145 13.6427C106.993 13.7443 106.87 13.8834 106.788 14.0465C106.706 14.2096 106.667 14.3912 106.676 14.5736H105.649C105.653 14.2394 105.732 13.9103 105.88 13.6106C106.017 13.3524 106.216 13.1319 106.458 12.9686C106.699 12.7912 106.978 12.6725 107.273 12.6219C107.598 12.5462 107.929 12.5053 108.262 12.4999C108.535 12.5072 108.807 12.5308 109.077 12.5705C109.342 12.6023 109.598 12.6805 109.835 12.8017C110.065 12.9126 110.25 13.0982 110.361 13.3281C110.537 13.586 110.633 13.8895 110.637 14.2012V17.3792C110.618 17.552 110.618 17.7264 110.637 17.8992C110.67 18.0212 110.753 18.079 110.926 18.079C111.036 18.0684 111.144 18.0447 111.247 18.0084V18.798H111.279ZM109.649 15.6522C109.503 15.7604 109.334 15.831 109.154 15.8576L108.512 15.9732L107.806 16.0631C107.595 16.0882 107.389 16.1467 107.196 16.2364C107.026 16.3161 106.876 16.4349 106.76 16.5831C106.628 16.77 106.567 16.9974 106.586 17.2251C106.578 17.3657 106.609 17.5057 106.676 17.6296C106.74 17.743 106.828 17.8415 106.933 17.9185C107.053 17.9881 107.183 18.038 107.318 18.0661C107.472 18.105 107.629 18.1265 107.787 18.1303C108.084 18.1268 108.378 18.077 108.66 17.9827C108.874 17.9071 109.071 17.7892 109.238 17.636C109.377 17.5041 109.486 17.3444 109.559 17.1673C109.624 17.0191 109.664 16.8604 109.674 16.6987V15.6714H109.642L109.649 15.6522ZM113.148 12.6476V13.9316C113.343 13.488 113.656 13.1062 114.053 12.8273C114.48 12.5931 114.967 12.4904 115.453 12.532V13.6106C115.096 13.5969 114.74 13.6559 114.406 13.7839C114.129 13.8752 113.885 14.0474 113.706 14.2783C113.526 14.5108 113.395 14.7772 113.321 15.0615C113.238 15.4039 113.199 15.7557 113.205 16.108V18.8237H112.178V12.6476H113.148ZM117.282 10.2914V15.3633L120.107 12.654H121.475L119.035 14.901L121.654 18.8366H120.37L118.252 15.5944L117.289 16.474V18.8045H116.261V10.2914H117.282ZM127.875 18.798C127.653 18.9174 127.401 18.9688 127.15 18.9457C127.025 18.9553 126.9 18.9363 126.784 18.8903C126.668 18.8444 126.564 18.7725 126.48 18.6803C126.396 18.5881 126.334 18.478 126.299 18.3582C126.263 18.2384 126.256 18.1122 126.277 17.9891C126.013 18.2974 125.684 18.543 125.314 18.7082C124.934 18.8629 124.529 18.9456 124.12 18.9521C123.854 18.9511 123.589 18.921 123.33 18.8622C123.1 18.8062 122.882 18.7083 122.688 18.5733C122.515 18.4223 122.368 18.2446 122.251 18.0469C122.134 17.8028 122.074 17.5346 122.078 17.2636C122.07 16.9633 122.129 16.6651 122.251 16.3905C122.366 16.1748 122.526 15.9865 122.72 15.8384C122.915 15.6971 123.132 15.5886 123.362 15.5174C123.61 15.4386 123.863 15.3785 124.12 15.3376C124.409 15.2734 124.672 15.2541 124.903 15.222C125.12 15.2014 125.334 15.1627 125.545 15.1065C125.718 15.0706 125.88 14.991 126.014 14.8754C126.075 14.8216 126.123 14.754 126.153 14.6781C126.183 14.6021 126.195 14.5201 126.187 14.4388C126.202 14.2557 126.162 14.0723 126.071 13.9123C125.986 13.7855 125.877 13.6765 125.75 13.5913C125.608 13.5326 125.462 13.4832 125.314 13.4437C125.15 13.4171 124.985 13.4063 124.819 13.4116C124.447 13.4099 124.078 13.4911 123.741 13.6491C123.589 13.7507 123.466 13.8898 123.384 14.053C123.302 14.2161 123.263 14.3976 123.272 14.58H122.245C122.255 14.2465 122.333 13.9186 122.476 13.617C122.613 13.3588 122.811 13.1383 123.054 12.975C123.295 12.7977 123.574 12.679 123.869 12.6283C124.195 12.5589 124.525 12.5181 124.858 12.5063C125.131 12.5139 125.403 12.5375 125.673 12.577C125.937 12.6087 126.194 12.6869 126.431 12.8081C126.661 12.9191 126.846 13.1046 126.957 13.3345C127.108 13.6 127.179 13.903 127.163 14.2077V17.3856C127.144 17.5584 127.144 17.7328 127.163 17.9056C127.163 18.0276 127.278 18.0854 127.452 18.0854C127.562 18.0777 127.67 18.0539 127.773 18.0148V18.8045L127.875 18.798ZM126.206 15.6522C126.061 15.7604 125.891 15.831 125.712 15.8576L125.07 15.9732L124.364 16.0631C124.141 16.0848 123.924 16.1434 123.722 16.2364C123.551 16.3161 123.401 16.4349 123.285 16.5831C123.152 16.7695 123.091 16.9973 123.112 17.2251C123.1 17.3659 123.131 17.5069 123.202 17.6296C123.266 17.743 123.353 17.8415 123.458 17.9185C123.578 17.9881 123.708 18.038 123.844 18.0661C124.29 18.1675 124.756 18.1363 125.185 17.9763C125.399 17.9007 125.596 17.7828 125.763 17.6296C125.902 17.4977 126.011 17.338 126.084 17.1609C126.15 17.0126 126.189 16.854 126.2 16.6922V15.665L126.206 15.6522ZM129.609 17.4627C129.707 17.6183 129.838 17.75 129.994 17.8479C130.158 17.9419 130.336 18.0111 130.52 18.0533L131.13 18.1175C131.295 18.1297 131.46 18.1297 131.625 18.1175C131.796 18.0957 131.964 18.0458 132.119 17.9698C132.264 17.9095 132.386 17.8036 132.466 17.6681C132.563 17.5314 132.615 17.3673 132.613 17.1994C132.62 17.0817 132.597 16.9643 132.547 16.8577C132.496 16.7512 132.42 16.659 132.325 16.5895C132.094 16.4357 131.837 16.3268 131.567 16.2685L130.604 16.031C130.274 15.967 129.951 15.8702 129.641 15.7421C129.349 15.6322 129.088 15.4513 128.883 15.2156C128.671 14.9537 128.568 14.6206 128.594 14.2847C128.581 14.0087 128.652 13.7352 128.8 13.5015C128.936 13.2835 129.115 13.0956 129.326 12.9493C129.556 12.8164 129.799 12.7088 130.052 12.6283C130.319 12.5664 130.593 12.5362 130.867 12.5384C131.19 12.5394 131.513 12.5695 131.83 12.6283C132.11 12.6898 132.377 12.7983 132.62 12.9493C132.852 13.1036 133.041 13.3132 133.172 13.5592C133.317 13.8484 133.396 14.1665 133.403 14.4902H132.376C132.358 14.3176 132.308 14.15 132.228 13.9958C132.145 13.8675 132.036 13.7581 131.907 13.6748C131.774 13.5897 131.626 13.5309 131.471 13.5015C131.308 13.4675 131.142 13.446 130.976 13.4373C130.82 13.4253 130.664 13.4253 130.508 13.4373C130.36 13.4694 130.212 13.5079 130.071 13.5528C129.953 13.6166 129.845 13.6966 129.75 13.7904C129.662 13.8984 129.621 14.0369 129.635 14.1756C129.635 14.3378 129.697 14.4937 129.808 14.6121C129.946 14.7352 130.105 14.833 130.277 14.901C130.484 14.9886 130.699 15.0574 130.919 15.1065L131.644 15.2798L132.402 15.4853C132.634 15.5511 132.852 15.66 133.044 15.8063C133.227 15.9434 133.385 16.1105 133.512 16.3006C133.634 16.5225 133.694 16.7731 133.686 17.0261C133.696 17.3518 133.616 17.674 133.454 17.957C133.301 18.213 133.092 18.4322 132.845 18.599C132.588 18.7601 132.302 18.8692 132.004 18.92C131.696 18.9726 131.385 19.0026 131.073 19.0099C130.739 19.0134 130.407 18.9746 130.084 18.8943C129.794 18.8269 129.518 18.7096 129.269 18.5476C129.032 18.3757 128.833 18.1572 128.684 17.9056C128.525 17.6103 128.445 17.2783 128.453 16.9426H129.48C129.481 17.1363 129.532 17.3264 129.628 17.4948L129.609 17.4627ZM134.873 12.6476H135.9V18.8237H134.873V12.6476ZM141.935 18.8301V17.9763C141.774 18.308 141.491 18.5653 141.146 18.6953C140.768 18.854 140.362 18.9347 139.952 18.9329C139.52 18.9393 139.092 18.8494 138.7 18.6696C138.362 18.5013 138.064 18.2627 137.827 17.9698C137.587 17.6617 137.409 17.311 137.3 16.9362C137.181 16.5296 137.123 16.1078 137.127 15.6843C137.127 15.261 137.185 14.8398 137.3 14.4324C137.412 14.0627 137.59 13.7167 137.827 13.4116C138.064 13.1187 138.362 12.8801 138.7 12.7118C139.083 12.5322 139.502 12.4422 139.926 12.4486C140.103 12.4575 140.279 12.479 140.452 12.5128C140.644 12.5441 140.83 12.6025 141.004 12.6861L141.531 12.975C141.694 13.1046 141.831 13.2636 141.935 13.4437V10.2721H142.963V18.8045H141.935V18.8301ZM138.295 16.6473C138.378 16.9034 138.495 17.1474 138.642 17.3728C138.811 17.5966 139.031 17.7771 139.284 17.8992C139.548 18.0281 139.837 18.0982 140.131 18.1047C140.436 18.1178 140.738 18.0467 141.004 17.8992C141.231 17.7651 141.428 17.5859 141.582 17.3728C141.734 17.1417 141.843 16.8851 141.903 16.6152C141.962 16.3365 141.992 16.0525 141.993 15.7677C142 15.4725 141.961 15.178 141.878 14.8946C141.824 14.6182 141.705 14.3586 141.531 14.137C141.36 13.9145 141.141 13.7344 140.889 13.6106C140.614 13.4604 140.303 13.3893 139.99 13.4052C139.686 13.392 139.384 13.4631 139.117 13.6106C138.89 13.7447 138.694 13.9239 138.539 14.137C138.396 14.3726 138.288 14.6278 138.218 14.8946C138.159 15.1819 138.129 15.4744 138.128 15.7677L138.302 16.6409L138.295 16.6473ZM144.587 12.6476H145.614V18.8237H144.587V12.6476ZM148.099 12.6476V13.9316C148.294 13.488 148.607 13.1062 149.004 12.8273C149.442 12.5844 149.944 12.4813 150.442 12.532V13.6106C150.086 13.6052 149.731 13.6639 149.396 13.7839C149.117 13.8765 148.872 14.0483 148.689 14.2783C148.51 14.5108 148.378 14.7772 148.304 15.0615C148.221 15.4039 148.182 15.7557 148.189 16.108V18.8237H147.161V12.6476H148.144H148.099ZM0 0H0.963014V26.1041H0V0Z" fill="#BDBDBD"/>
</svg>
